<svg xmlns="http://www.w3.org/2000/svg" xmlns:xlink="http://www.w3.org/1999/xlink" width="796" zoomAndPan="magnify" viewBox="0 0 597 469.499982" height="626" preserveAspectRatio="xMidYMid meet" version="1.2"><defs><clipPath id="cb6eb860ab"><path d="M 205.164062 126 L 596.679688 126 L 596.679688 468.664062 L 205.164062 468.664062 Z M 205.164062 126 "/></clipPath><clipPath id="86718f6932"><path d="M 460.449219 126.339844 L 341.09375 126.339844 C 266.015625 126.339844 205.164062 185.792969 205.164062 259.125 C 205.164062 312.21875 237.066406 358.011719 283.15625 379.257812 L 283.15625 468.664062 L 375.480469 391.90625 L 460.449219 391.90625 C 535.53125 391.90625 596.390625 332.457031 596.390625 259.121094 C 596.394531 185.792969 535.53125 126.339844 460.449219 126.339844 Z M 460.449219 126.339844 "/></clipPath><clipPath id="d59c945e24"><path d="M 0.316406 38 L 385 38 L 385 374.59375 L 0.316406 374.59375 Z M 0.316406 38 "/></clipPath><clipPath id="a7e2dec073"><path d="M 251.21875 38.148438 L 133.914062 38.148438 C 60.125 38.148438 0.316406 96.578125 0.316406 168.652344 C 0.316406 220.832031 31.671875 265.839844 76.972656 286.722656 L 76.972656 374.59375 L 167.707031 299.15625 L 251.21875 299.15625 C 325.011719 299.15625 384.824219 240.726562 384.824219 168.648438 C 384.832031 96.578125 325.011719 38.148438 251.21875 38.148438 Z M 251.21875 38.148438 "/></clipPath><clipPath id="dcedddc6ce"><path d="M 391 5 L 442 5 L 442 70 L 391 70 Z M 391 5 "/></clipPath><clipPath id="af84f22277"><path d="M 385.738281 12.605469 L 420.808594 0 L 441.292969 56.988281 L 406.222656 69.59375 Z M 385.738281 12.605469 "/></clipPath><clipPath id="b2bc918b28"><path d="M 397.796875 9.414062 C 399.371094 8.15625 401.277344 7.019531 403.28125 6.300781 C 405.289062 5.578125 407.34375 5.226562 409.339844 5.199219 C 409.386719 5.207031 409.421875 5.191406 409.46875 5.195312 C 417.027344 5.242188 424.269531 9.929688 427.1875 17.75 L 441.261719 56.90625 L 406.191406 69.511719 L 392.128906 30.382812 C 389.375 22.429688 391.898438 14.230469 397.796875 9.414062 Z M 397.796875 9.414062 "/></clipPath><clipPath id="bc23e484cb"><path d="M 413 12 L 471 12 L 471 77 L 413 77 Z M 413 12 "/></clipPath><clipPath id="8e87129920"><path d="M 446.328125 5.160156 L 477.625 25.390625 L 444.75 76.25 L 413.449219 56.015625 Z M 446.328125 5.160156 "/></clipPath><clipPath id="7daf795e76"><path d="M 456.179688 12.808594 C 458.132812 13.296875 460.195312 14.121094 461.984375 15.28125 C 463.773438 16.4375 465.300781 17.855469 466.535156 19.429688 C 466.558594 19.46875 466.589844 19.488281 466.613281 19.527344 C 471.164062 25.566406 471.832031 34.167969 467.386719 41.230469 L 444.796875 76.175781 L 413.5 55.941406 L 436.070312 21.023438 C 440.722656 14.011719 448.773438 11.042969 456.179688 12.808594 Z M 456.179688 12.808594 "/></clipPath><clipPath id="392573a851"><path d="M 376.582031 56.039062 L 479.941406 56.039062 L 479.941406 116.175781 L 376.582031 116.175781 Z M 376.582031 56.039062 "/></clipPath><clipPath id="4ac3451c65"><path d="M 449.75 56.039062 C 466.355469 56.039062 479.816406 69.5 479.816406 86.109375 C 479.816406 102.714844 466.355469 116.175781 449.75 116.175781 L 406.652344 116.175781 C 390.046875 116.175781 376.582031 102.714844 376.582031 86.109375 C 376.582031 69.5 390.046875 56.039062 406.652344 56.039062 Z M 449.75 56.039062 "/></clipPath><clipPath id="8693ac002d"><path d="M 403.96875 56.039062 L 418.484375 56.039062 L 418.484375 116.175781 L 403.96875 116.175781 Z M 403.96875 56.039062 "/></clipPath><clipPath id="6449f6d632"><path d="M 436.613281 56.039062 L 450.933594 56.039062 L 450.933594 116.175781 L 436.613281 116.175781 Z M 436.613281 56.039062 "/></clipPath><clipPath id="3a02007dfe"><path d="M 143 331 L 194 331 L 194 396 L 143 396 Z M 143 331 "/></clipPath><clipPath id="4e6bfd7e3d"><path d="M 137.980469 338.542969 L 173.050781 325.9375 L 193.535156 382.925781 L 158.464844 395.535156 Z M 137.980469 338.542969 "/></clipPath><clipPath id="fb309bf4b3"><path d="M 150.039062 335.351562 C 151.613281 334.097656 153.515625 332.957031 155.523438 332.238281 C 157.53125 331.515625 159.582031 331.167969 161.582031 331.136719 C 161.628906 331.144531 161.664062 331.128906 161.710938 331.136719 C 169.269531 331.179688 176.511719 335.871094 179.429688 343.6875 L 193.503906 382.84375 L 158.433594 395.449219 L 144.371094 356.324219 C 141.617188 348.371094 144.140625 340.167969 150.039062 335.351562 Z M 150.039062 335.351562 "/></clipPath><clipPath id="ea30b375e1"><path d="M 165 338 L 223 338 L 223 403 L 165 403 Z M 165 338 "/></clipPath><clipPath id="7ccdfe27df"><path d="M 198.566406 331.097656 L 229.867188 351.328125 L 196.988281 402.1875 L 165.691406 381.957031 Z M 198.566406 331.097656 "/></clipPath><clipPath id="36847f8df8"><path d="M 208.421875 338.75 C 210.375 339.234375 212.433594 340.0625 214.226562 341.21875 C 216.015625 342.375 217.539062 343.796875 218.773438 345.367188 C 218.796875 345.40625 218.832031 345.429688 218.855469 345.46875 C 223.40625 351.503906 224.070312 360.105469 219.625 367.167969 L 197.039062 402.113281 L 165.738281 381.882812 L 188.3125 346.964844 C 192.964844 339.949219 201.015625 336.980469 208.421875 338.75 Z M 208.421875 338.75 "/></clipPath><clipPath id="9f5931c20b"><path d="M 128.824219 381.980469 L 232 381.980469 L 232 442.113281 L 128.824219 442.113281 Z M 128.824219 381.980469 "/></clipPath><clipPath id="d983e26130"><path d="M 201.992188 381.980469 C 218.597656 381.980469 232.058594 395.441406 232.058594 412.046875 C 232.058594 428.652344 218.597656 442.113281 201.992188 442.113281 L 158.894531 442.113281 C 142.285156 442.113281 128.824219 428.652344 128.824219 412.046875 C 128.824219 395.441406 142.285156 381.980469 158.894531 381.980469 Z M 201.992188 381.980469 "/></clipPath><clipPath id="8d6b55b81e"><path d="M 156.210938 381.980469 L 170.722656 381.980469 L 170.722656 442.113281 L 156.210938 442.113281 Z M 156.210938 381.980469 "/></clipPath><clipPath id="bfaa4acef1"><path d="M 188.851562 381.980469 L 203.175781 381.980469 L 203.175781 442.113281 L 188.851562 442.113281 Z M 188.851562 381.980469 "/></clipPath></defs><g id="73fee8a323"><g clip-rule="nonzero" clip-path="url(#cb6eb860ab)"><g clip-rule="nonzero" clip-path="url(#86718f6932)"><path style=" stroke:none;fill-rule:nonzero;fill:#27201e;fill-opacity:1;" d="M 205.164062 126.339844 L 596.964844 126.339844 L 596.964844 468.664062 L 205.164062 468.664062 Z M 205.164062 126.339844 "/></g></g><g clip-rule="nonzero" clip-path="url(#d59c945e24)"><g clip-rule="nonzero" clip-path="url(#a7e2dec073)"><path style=" stroke:none;fill-rule:nonzero;fill:#fcb43a;fill-opacity:1;" d="M 0.316406 38.148438 L 385.386719 38.148438 L 385.386719 374.59375 L 0.316406 374.59375 Z M 0.316406 38.148438 "/></g></g><g clip-rule="nonzero" clip-path="url(#dcedddc6ce)"><g clip-rule="nonzero" clip-path="url(#af84f22277)"><g clip-rule="nonzero" clip-path="url(#b2bc918b28)"><path style=" stroke:none;fill-rule:nonzero;fill:#f1f1f1;fill-opacity:1;" d="M 385.738281 12.605469 L 420.808594 0 L 441.242188 56.851562 L 406.171875 69.457031 Z M 385.738281 12.605469 "/></g></g></g><g clip-rule="nonzero" clip-path="url(#bc23e484cb)"><g clip-rule="nonzero" clip-path="url(#8e87129920)"><g clip-rule="nonzero" clip-path="url(#7daf795e76)"><path style=" stroke:none;fill-rule:nonzero;fill:#f1f1f1;fill-opacity:1;" d="M 446.328125 5.160156 L 477.625 25.390625 L 444.828125 76.125 L 413.53125 55.894531 Z M 446.328125 5.160156 "/></g></g></g><g clip-rule="nonzero" clip-path="url(#392573a851)"><g clip-rule="nonzero" clip-path="url(#4ac3451c65)"><path style=" stroke:none;fill-rule:nonzero;fill:#fcb43a;fill-opacity:1;" d="M 376.582031 56.039062 L 479.707031 56.039062 L 479.707031 116.175781 L 376.582031 116.175781 Z M 376.582031 56.039062 "/></g></g><g clip-rule="nonzero" clip-path="url(#8693ac002d)"><path style=" stroke:none;fill-rule:nonzero;fill:#27201e;fill-opacity:1;" d="M 403.96875 56.039062 L 418.484375 56.039062 L 418.484375 116.195312 L 403.96875 116.195312 Z M 403.96875 56.039062 "/></g><g clip-rule="nonzero" clip-path="url(#6449f6d632)"><path style=" stroke:none;fill-rule:nonzero;fill:#27201e;fill-opacity:1;" d="M 436.613281 56.039062 L 450.933594 56.039062 L 450.933594 116.1875 L 436.613281 116.1875 Z M 436.613281 56.039062 "/></g><g style="fill:#27201e;fill-opacity:1;"><g transform="translate(46.021173, 225.832304)"><path style="stroke:none" d="M 13.953125 0 L 13.953125 -120.828125 L 95.546875 -120.828125 L 95.546875 -97.984375 L 41.15625 -97.984375 L 41.15625 -74.28125 L 89.453125 -74.28125 L 89.453125 -51.953125 L 41.15625 -51.953125 L 41.15625 -22.84375 L 99.5625 -22.84375 L 99.5625 0 Z M 13.953125 0 "/></g></g><g style="fill:#27201e;fill-opacity:1;"><g transform="translate(149.546075, 150.471937)"><path style="stroke:none" d="M 5.71875 -41.53125 C 7.789062 -42.132812 10.460938 -42.691406 13.734375 -43.203125 C 17.003906 -43.722656 20.441406 -43.984375 24.046875 -43.984375 C 27.691406 -43.984375 30.726562 -43.503906 33.15625 -42.546875 C 35.582031 -41.597656 37.503906 -40.25 38.921875 -38.5 C 40.335938 -36.757812 41.34375 -34.691406 41.9375 -32.296875 C 42.539062 -29.898438 42.84375 -27.226562 42.84375 -24.28125 L 42.84375 0 L 30.65625 0 L 30.65625 -22.8125 C 30.65625 -26.738281 30.140625 -29.519531 29.109375 -31.15625 C 28.078125 -32.789062 26.140625 -33.609375 23.296875 -33.609375 C 22.429688 -33.609375 21.503906 -33.566406 20.515625 -33.484375 C 19.535156 -33.398438 18.664062 -33.304688 17.90625 -33.203125 L 17.90625 0 L 5.71875 0 Z M 5.71875 -41.53125 "/></g></g><g style="fill:#27201e;fill-opacity:1;"><g transform="translate(197.696846, 150.471937)"><path style="stroke:none" d="M 1.71875 15.125 C 0.957031 15.125 -0.171875 15.039062 -1.671875 14.875 C -3.171875 14.71875 -4.578125 14.421875 -5.890625 13.984375 L -4.25 4.09375 C -3.4375 4.363281 -2.6875 4.550781 -2 4.65625 C -1.320312 4.769531 -0.460938 4.828125 0.578125 4.828125 C 2.484375 4.828125 3.816406 4.253906 4.578125 3.109375 C 5.335938 1.960938 5.71875 0.300781 5.71875 -1.875 L 5.71875 -43.015625 L 17.90625 -43.015625 L 17.90625 -1.546875 C 17.90625 4.117188 16.515625 8.3125 13.734375 11.03125 C 10.953125 13.757812 6.945312 15.125 1.71875 15.125 Z M 19.046875 -55.4375 C 19.046875 -53.195312 18.320312 -51.4375 16.875 -50.15625 C 15.4375 -48.875 13.738281 -48.234375 11.78125 -48.234375 C 9.8125 -48.234375 8.101562 -48.875 6.65625 -50.15625 C 5.21875 -51.4375 4.5 -53.195312 4.5 -55.4375 C 4.5 -57.675781 5.21875 -59.429688 6.65625 -60.703125 C 8.101562 -61.984375 9.8125 -62.625 11.78125 -62.625 C 13.738281 -62.625 15.4375 -61.984375 16.875 -60.703125 C 18.320312 -59.429688 19.046875 -57.675781 19.046875 -55.4375 Z M 19.046875 -55.4375 "/></g></g><g style="fill:#27201e;fill-opacity:1;"><g transform="translate(221.322596, 150.471937)"><path style="stroke:none" d="M 45.953125 -21.59375 C 45.953125 -18.207031 45.460938 -15.109375 44.484375 -12.296875 C 43.503906 -9.492188 42.085938 -7.097656 40.234375 -5.109375 C 38.378906 -3.117188 36.15625 -1.578125 33.5625 -0.484375 C 30.976562 0.597656 28.078125 1.140625 24.859375 1.140625 C 21.691406 1.140625 18.8125 0.597656 16.21875 -0.484375 C 13.632812 -1.578125 11.414062 -3.117188 9.5625 -5.109375 C 7.707031 -7.097656 6.257812 -9.492188 5.21875 -12.296875 C 4.1875 -15.109375 3.671875 -18.207031 3.671875 -21.59375 C 3.671875 -24.96875 4.203125 -28.046875 5.265625 -30.828125 C 6.335938 -33.609375 7.8125 -35.976562 9.6875 -37.9375 C 11.570312 -39.90625 13.804688 -41.429688 16.390625 -42.515625 C 18.984375 -43.609375 21.804688 -44.15625 24.859375 -44.15625 C 27.960938 -44.15625 30.804688 -43.609375 33.390625 -42.515625 C 35.984375 -41.429688 38.207031 -39.90625 40.0625 -37.9375 C 41.914062 -35.976562 43.359375 -33.609375 44.390625 -30.828125 C 45.429688 -28.046875 45.953125 -24.96875 45.953125 -21.59375 Z M 33.53125 -21.59375 C 33.53125 -25.351562 32.78125 -28.304688 31.28125 -30.453125 C 29.78125 -32.609375 27.640625 -33.6875 24.859375 -33.6875 C 22.078125 -33.6875 19.921875 -32.609375 18.390625 -30.453125 C 16.867188 -28.304688 16.109375 -25.351562 16.109375 -21.59375 C 16.109375 -17.820312 16.867188 -14.832031 18.390625 -12.625 C 19.921875 -10.425781 22.078125 -9.328125 24.859375 -9.328125 C 27.640625 -9.328125 29.78125 -10.425781 31.28125 -12.625 C 32.78125 -14.832031 33.53125 -17.820312 33.53125 -21.59375 Z M 33.53125 -21.59375 "/></g></g><g style="fill:#27201e;fill-opacity:1;"><g transform="translate(269.800146, 150.471937)"><path style="stroke:none" d="M 43.90625 -43.015625 C 41.457031 -34.722656 38.894531 -26.953125 36.21875 -19.703125 C 33.550781 -12.453125 30.632812 -5.421875 27.46875 1.390625 C 26.320312 3.835938 25.175781 5.921875 24.03125 7.640625 C 22.894531 9.359375 21.644531 10.773438 20.28125 11.890625 C 18.914062 13.015625 17.375 13.832031 15.65625 14.34375 C 13.9375 14.863281 11.929688 15.125 9.640625 15.125 C 7.734375 15.125 5.976562 14.945312 4.375 14.59375 C 2.769531 14.238281 1.445312 13.84375 0.40625 13.40625 L 2.53125 3.671875 C 3.789062 4.109375 4.910156 4.410156 5.890625 4.578125 C 6.867188 4.742188 7.90625 4.828125 9 4.828125 C 11.175781 4.828125 12.847656 4.238281 14.015625 3.0625 C 15.191406 1.894531 16.1875 0.273438 17 -1.796875 C 14.226562 -7.242188 11.453125 -13.359375 8.671875 -20.140625 C 5.890625 -26.929688 3.269531 -34.554688 0.8125 -43.015625 L 13.734375 -43.015625 C 14.273438 -40.878906 14.914062 -38.570312 15.65625 -36.09375 C 16.394531 -33.613281 17.171875 -31.109375 17.984375 -28.578125 C 18.804688 -26.046875 19.640625 -23.578125 20.484375 -21.171875 C 21.328125 -18.773438 22.128906 -16.597656 22.890625 -14.640625 C 23.597656 -16.597656 24.332031 -18.773438 25.09375 -21.171875 C 25.863281 -23.578125 26.613281 -26.046875 27.34375 -28.578125 C 28.082031 -31.109375 28.789062 -33.613281 29.46875 -36.09375 C 30.15625 -38.570312 30.769531 -40.878906 31.3125 -43.015625 Z M 43.90625 -43.015625 "/></g></g><g style="fill:#27201e;fill-opacity:1;"><g transform="translate(151.718697, 226.755722)"><path style="stroke:none" d="M 4.5 -32.703125 C 6.132812 -33.179688 8.238281 -33.625 10.8125 -34.03125 C 13.394531 -34.4375 16.101562 -34.640625 18.9375 -34.640625 C 21.8125 -34.640625 24.203125 -34.265625 26.109375 -33.515625 C 28.015625 -32.765625 29.523438 -31.703125 30.640625 -30.328125 C 31.765625 -28.953125 32.5625 -27.316406 33.03125 -25.421875 C 33.5 -23.535156 33.734375 -21.4375 33.734375 -19.125 L 33.734375 0 L 24.140625 0 L 24.140625 -17.96875 C 24.140625 -21.050781 23.734375 -23.238281 22.921875 -24.53125 C 22.109375 -25.820312 20.582031 -26.46875 18.34375 -26.46875 C 17.664062 -26.46875 16.9375 -26.429688 16.15625 -26.359375 C 15.382812 -26.296875 14.695312 -26.222656 14.09375 -26.140625 L 14.09375 0 L 4.5 0 Z M 4.5 -32.703125 "/></g></g><g style="fill:#27201e;fill-opacity:1;"><g transform="translate(189.632053, 226.755722)"><path style="stroke:none" d="M 12.6875 -18.03125 C 12.6875 -12.664062 14.851562 -9.984375 19.1875 -9.984375 C 20.175781 -9.984375 21.097656 -10.109375 21.953125 -10.359375 C 22.816406 -10.617188 23.546875 -10.921875 24.140625 -11.265625 L 24.140625 -26.59375 C 23.671875 -26.675781 23.113281 -26.75 22.46875 -26.8125 C 21.820312 -26.882812 21.070312 -26.921875 20.21875 -26.921875 C 17.6875 -26.921875 15.796875 -26.082031 14.546875 -24.40625 C 13.304688 -22.726562 12.6875 -20.601562 12.6875 -18.03125 Z M 33.734375 -4.25 C 33.734375 1.289062 32.328125 5.398438 29.515625 8.078125 C 26.710938 10.765625 22.367188 12.109375 16.484375 12.109375 C 14.421875 12.109375 12.359375 11.925781 10.296875 11.5625 C 8.242188 11.195312 6.335938 10.710938 4.578125 10.109375 L 6.25 2.0625 C 7.75 2.664062 9.320312 3.140625 10.96875 3.484375 C 12.625 3.828125 14.503906 4 16.609375 4 C 19.359375 4 21.300781 3.394531 22.4375 2.1875 C 23.570312 0.988281 24.140625 -0.554688 24.140625 -2.453125 L 24.140625 -3.671875 C 23.109375 -3.203125 22.046875 -2.847656 20.953125 -2.609375 C 19.859375 -2.367188 18.671875 -2.25 17.390625 -2.25 C 12.703125 -2.25 9.113281 -3.632812 6.625 -6.40625 C 4.132812 -9.175781 2.890625 -13.050781 2.890625 -18.03125 C 2.890625 -20.519531 3.273438 -22.78125 4.046875 -24.8125 C 4.828125 -26.851562 5.957031 -28.601562 7.4375 -30.0625 C 8.914062 -31.53125 10.726562 -32.660156 12.875 -33.453125 C 15.019531 -34.242188 17.445312 -34.640625 20.15625 -34.640625 C 21.3125 -34.640625 22.5 -34.582031 23.71875 -34.46875 C 24.945312 -34.363281 26.160156 -34.226562 27.359375 -34.0625 C 28.566406 -33.894531 29.71875 -33.691406 30.8125 -33.453125 C 31.90625 -33.210938 32.878906 -32.960938 33.734375 -32.703125 Z M 33.734375 -4.25 "/></g></g><g style="fill:#27201e;fill-opacity:1;"><g transform="translate(227.867252, 226.755722)"><path style="stroke:none" d="M 18.03125 0.640625 C 15.238281 0.597656 12.972656 0.300781 11.234375 -0.25 C 9.492188 -0.8125 8.117188 -1.597656 7.109375 -2.609375 C 6.109375 -3.617188 5.421875 -4.84375 5.046875 -6.28125 C 4.679688 -7.71875 4.5 -9.335938 4.5 -11.140625 L 4.5 -48.421875 L 14.09375 -49.96875 L 14.09375 -13.078125 C 14.09375 -12.210938 14.15625 -11.4375 14.28125 -10.75 C 14.414062 -10.0625 14.664062 -9.484375 15.03125 -9.015625 C 15.394531 -8.546875 15.921875 -8.160156 16.609375 -7.859375 C 17.296875 -7.554688 18.21875 -7.363281 19.375 -7.28125 Z M 18.03125 0.640625 "/></g></g><g style="fill:#27201e;fill-opacity:1;"><g transform="translate(248.207864, 226.755722)"><path style="stroke:none" d="M 14.09375 0 L 4.5 0 L 4.5 -33.875 L 14.09375 -33.875 Z M 15 -43.65625 C 15 -41.894531 14.429688 -40.507812 13.296875 -39.5 C 12.160156 -38.488281 10.816406 -37.984375 9.265625 -37.984375 C 7.722656 -37.984375 6.382812 -38.488281 5.25 -39.5 C 4.113281 -40.507812 3.546875 -41.894531 3.546875 -43.65625 C 3.546875 -45.414062 4.113281 -46.800781 5.25 -47.8125 C 6.382812 -48.820312 7.722656 -49.328125 9.265625 -49.328125 C 10.816406 -49.328125 12.160156 -48.820312 13.296875 -47.8125 C 14.429688 -46.800781 15 -45.414062 15 -43.65625 Z M 15 -43.65625 "/></g></g><g style="fill:#27201e;fill-opacity:1;"><g transform="translate(266.810512, 226.755722)"><path style="stroke:none" d="M 14.234375 -6.890625 C 15.992188 -6.890625 17.238281 -7.0625 17.96875 -7.40625 C 18.695312 -7.75 19.0625 -8.414062 19.0625 -9.40625 C 19.0625 -10.175781 18.585938 -10.847656 17.640625 -11.421875 C 16.691406 -12.003906 15.253906 -12.660156 13.328125 -13.390625 C 11.828125 -13.953125 10.460938 -14.53125 9.234375 -15.125 C 8.015625 -15.726562 6.972656 -16.445312 6.109375 -17.28125 C 5.253906 -18.125 4.585938 -19.125 4.109375 -20.28125 C 3.640625 -21.4375 3.40625 -22.832031 3.40625 -24.46875 C 3.40625 -27.644531 4.585938 -30.15625 6.953125 -32 C 9.316406 -33.84375 12.554688 -34.765625 16.671875 -34.765625 C 18.734375 -34.765625 20.707031 -34.582031 22.59375 -34.21875 C 24.488281 -33.851562 25.992188 -33.457031 27.109375 -33.03125 L 25.4375 -25.5625 C 24.320312 -25.945312 23.109375 -26.289062 21.796875 -26.59375 C 20.484375 -26.894531 19.015625 -27.046875 17.390625 -27.046875 C 14.378906 -27.046875 12.875 -26.207031 12.875 -24.53125 C 12.875 -24.144531 12.9375 -23.800781 13.0625 -23.5 C 13.195312 -23.195312 13.457031 -22.90625 13.84375 -22.625 C 14.226562 -22.351562 14.753906 -22.054688 15.421875 -21.734375 C 16.085938 -21.410156 16.9375 -21.054688 17.96875 -20.671875 C 20.070312 -19.898438 21.804688 -19.132812 23.171875 -18.375 C 24.546875 -17.625 25.628906 -16.804688 26.421875 -15.921875 C 27.222656 -15.046875 27.785156 -14.070312 28.109375 -13 C 28.429688 -11.925781 28.59375 -10.679688 28.59375 -9.265625 C 28.59375 -5.921875 27.335938 -3.390625 24.828125 -1.671875 C 22.316406 0.046875 18.765625 0.90625 14.171875 0.90625 C 11.160156 0.90625 8.65625 0.644531 6.65625 0.125 C 4.664062 -0.382812 3.285156 -0.8125 2.515625 -1.15625 L 4.125 -8.953125 C 5.75 -8.304688 7.421875 -7.800781 9.140625 -7.4375 C 10.859375 -7.070312 12.554688 -6.890625 14.234375 -6.890625 Z M 14.234375 -6.890625 "/></g></g><g style="fill:#27201e;fill-opacity:1;"><g transform="translate(298.029481, 226.755722)"><path style="stroke:none" d="M 4.5 0 L 4.5 -48.421875 L 14.09375 -49.96875 L 14.09375 -33.734375 C 14.738281 -33.953125 15.566406 -34.15625 16.578125 -34.34375 C 17.585938 -34.539062 18.566406 -34.640625 19.515625 -34.640625 C 22.253906 -34.640625 24.535156 -34.265625 26.359375 -33.515625 C 28.191406 -32.765625 29.65625 -31.703125 30.75 -30.328125 C 31.84375 -28.953125 32.613281 -27.316406 33.0625 -25.421875 C 33.507812 -23.535156 33.734375 -21.4375 33.734375 -19.125 L 33.734375 0 L 24.140625 0 L 24.140625 -17.96875 C 24.140625 -21.050781 23.742188 -23.238281 22.953125 -24.53125 C 22.160156 -25.820312 20.691406 -26.46875 18.546875 -26.46875 C 17.679688 -26.46875 16.875 -26.390625 16.125 -26.234375 C 15.375 -26.085938 14.695312 -25.925781 14.09375 -25.75 L 14.09375 0 Z M 4.5 0 "/></g></g><g style="fill:#f1f1f1;fill-opacity:1;"><g transform="translate(400.776868, 235.718284)"><path style="stroke:none" d="M 17.90625 0 L 5.71875 0 L 5.71875 -43.015625 L 17.90625 -43.015625 Z M 19.046875 -55.4375 C 19.046875 -53.195312 18.320312 -51.4375 16.875 -50.15625 C 15.4375 -48.875 13.738281 -48.234375 11.78125 -48.234375 C 9.8125 -48.234375 8.101562 -48.875 6.65625 -50.15625 C 5.21875 -51.4375 4.5 -53.195312 4.5 -55.4375 C 4.5 -57.675781 5.21875 -59.429688 6.65625 -60.703125 C 8.101562 -61.984375 9.8125 -62.625 11.78125 -62.625 C 13.738281 -62.625 15.4375 -61.984375 16.875 -60.703125 C 18.320312 -59.429688 19.046875 -57.675781 19.046875 -55.4375 Z M 19.046875 -55.4375 "/></g></g><g style="fill:#f1f1f1;fill-opacity:1;"><g transform="translate(424.402618, 235.718284)"><path style="stroke:none" d="M 5.71875 -41.53125 C 7.789062 -42.132812 10.460938 -42.691406 13.734375 -43.203125 C 17.003906 -43.722656 20.441406 -43.984375 24.046875 -43.984375 C 27.691406 -43.984375 30.726562 -43.503906 33.15625 -42.546875 C 35.582031 -41.597656 37.503906 -40.25 38.921875 -38.5 C 40.335938 -36.757812 41.34375 -34.691406 41.9375 -32.296875 C 42.539062 -29.898438 42.84375 -27.226562 42.84375 -24.28125 L 42.84375 0 L 30.65625 0 L 30.65625 -22.8125 C 30.65625 -26.738281 30.140625 -29.519531 29.109375 -31.15625 C 28.078125 -32.789062 26.140625 -33.609375 23.296875 -33.609375 C 22.429688 -33.609375 21.503906 -33.566406 20.515625 -33.484375 C 19.535156 -33.398438 18.664062 -33.304688 17.90625 -33.203125 L 17.90625 0 L 5.71875 0 Z M 5.71875 -41.53125 "/></g></g><g style="fill:#f1f1f1;fill-opacity:1;"><g transform="translate(358.475135, 320.383385)"><path style="stroke:none" d="M 3.671875 -21.5 C 3.671875 -24.613281 4.175781 -27.546875 5.1875 -30.296875 C 6.195312 -33.046875 7.65625 -35.441406 9.5625 -37.484375 C 11.46875 -39.535156 13.785156 -41.160156 16.515625 -42.359375 C 19.242188 -43.554688 22.351562 -44.15625 25.84375 -44.15625 C 28.125 -44.15625 30.21875 -43.945312 32.125 -43.53125 C 34.039062 -43.125 35.894531 -42.539062 37.6875 -41.78125 L 35.15625 -32.046875 C 34.007812 -32.484375 32.753906 -32.863281 31.390625 -33.1875 C 30.035156 -33.519531 28.507812 -33.6875 26.8125 -33.6875 C 23.21875 -33.6875 20.535156 -32.566406 18.765625 -30.328125 C 16.992188 -28.097656 16.109375 -25.15625 16.109375 -21.5 C 16.109375 -17.632812 16.9375 -14.640625 18.59375 -12.515625 C 20.257812 -10.390625 23.164062 -9.328125 27.3125 -9.328125 C 28.78125 -9.328125 30.359375 -9.460938 32.046875 -9.734375 C 33.742188 -10.003906 35.300781 -10.4375 36.71875 -11.03125 L 38.4375 -1.0625 C 37.007812 -0.457031 35.234375 0.0546875 33.109375 0.484375 C 30.984375 0.921875 28.640625 1.140625 26.078125 1.140625 C 22.160156 1.140625 18.78125 0.554688 15.9375 -0.609375 C 13.101562 -1.785156 10.773438 -3.378906 8.953125 -5.390625 C 7.128906 -7.410156 5.789062 -9.796875 4.9375 -12.546875 C 4.09375 -15.304688 3.671875 -18.289062 3.671875 -21.5 Z M 3.671875 -21.5 "/></g></g><g style="fill:#f1f1f1;fill-opacity:1;"><g transform="translate(399.350154, 320.383385)"><path style="stroke:none" d="M 22.890625 0.8125 C 19.347656 0.757812 16.472656 0.378906 14.265625 -0.328125 C 12.054688 -1.035156 10.3125 -2.03125 9.03125 -3.3125 C 7.75 -4.59375 6.875 -6.144531 6.40625 -7.96875 C 5.945312 -9.800781 5.71875 -11.859375 5.71875 -14.140625 L 5.71875 -61.484375 L 17.90625 -63.453125 L 17.90625 -16.59375 C 17.90625 -15.507812 17.984375 -14.53125 18.140625 -13.65625 C 18.304688 -12.78125 18.617188 -12.039062 19.078125 -11.4375 C 19.546875 -10.84375 20.21875 -10.351562 21.09375 -9.96875 C 21.96875 -9.59375 23.140625 -9.347656 24.609375 -9.234375 Z M 22.890625 0.8125 "/></g></g><g style="fill:#f1f1f1;fill-opacity:1;"><g transform="translate(425.183164, 320.383385)"><path style="stroke:none" d="M 42.4375 -1.46875 C 40.363281 -0.875 37.691406 -0.316406 34.421875 0.203125 C 31.148438 0.722656 27.71875 0.984375 24.125 0.984375 C 20.46875 0.984375 17.425781 0.492188 15 -0.484375 C 12.570312 -1.472656 10.648438 -2.851562 9.234375 -4.625 C 7.816406 -6.394531 6.804688 -8.503906 6.203125 -10.953125 C 5.609375 -13.410156 5.3125 -16.109375 5.3125 -19.046875 L 5.3125 -43.015625 L 17.5 -43.015625 L 17.5 -20.515625 C 17.5 -16.597656 18.015625 -13.765625 19.046875 -12.015625 C 20.085938 -10.273438 22.023438 -9.40625 24.859375 -9.40625 C 25.734375 -9.40625 26.660156 -9.441406 27.640625 -9.515625 C 28.617188 -9.597656 29.488281 -9.695312 30.25 -9.8125 L 30.25 -43.015625 L 42.4375 -43.015625 Z M 42.4375 -1.46875 "/></g></g><g style="fill:#f1f1f1;fill-opacity:1;"><g transform="translate(473.333934, 320.383385)"><path style="stroke:none" d="M 33.28125 -21.828125 C 33.28125 -29.679688 30.390625 -33.609375 24.609375 -33.609375 C 23.359375 -33.609375 22.117188 -33.441406 20.890625 -33.109375 C 19.660156 -32.785156 18.664062 -32.378906 17.90625 -31.890625 L 17.90625 -9.734375 C 18.507812 -9.617188 19.273438 -9.519531 20.203125 -9.4375 C 21.128906 -9.363281 22.132812 -9.328125 23.21875 -9.328125 C 26.539062 -9.328125 29.046875 -10.46875 30.734375 -12.75 C 32.429688 -15.039062 33.28125 -18.066406 33.28125 -21.828125 Z M 45.703125 -21.5 C 45.703125 -18.070312 45.195312 -14.96875 44.1875 -12.1875 C 43.1875 -9.40625 41.726562 -7.03125 39.8125 -5.0625 C 37.90625 -3.101562 35.5625 -1.59375 32.78125 -0.53125 C 30.007812 0.53125 26.847656 1.0625 23.296875 1.0625 C 21.828125 1.0625 20.285156 0.992188 18.671875 0.859375 C 17.066406 0.722656 15.488281 0.546875 13.9375 0.328125 C 12.382812 0.109375 10.898438 -0.148438 9.484375 -0.453125 C 8.066406 -0.753906 6.8125 -1.066406 5.71875 -1.390625 L 5.71875 -61.484375 L 17.90625 -63.453125 L 17.90625 -42.03125 C 19.269531 -42.625 20.6875 -43.082031 22.15625 -43.40625 C 23.625 -43.738281 25.207031 -43.90625 26.90625 -43.90625 C 29.957031 -43.90625 32.65625 -43.375 35 -42.3125 C 37.34375 -41.25 39.300781 -39.734375 40.875 -37.765625 C 42.457031 -35.804688 43.65625 -33.453125 44.46875 -30.703125 C 45.289062 -27.953125 45.703125 -24.882812 45.703125 -21.5 Z M 45.703125 -21.5 "/></g></g><g clip-rule="nonzero" clip-path="url(#3a02007dfe)"><g clip-rule="nonzero" clip-path="url(#4e6bfd7e3d)"><g clip-rule="nonzero" clip-path="url(#fb309bf4b3)"><path style=" stroke:none;fill-rule:nonzero;fill:#f1f1f1;fill-opacity:1;" d="M 137.980469 338.542969 L 173.050781 325.9375 L 193.484375 382.789062 L 158.414062 395.398438 Z M 137.980469 338.542969 "/></g></g></g><g clip-rule="nonzero" clip-path="url(#ea30b375e1)"><g clip-rule="nonzero" clip-path="url(#7ccdfe27df)"><g clip-rule="nonzero" clip-path="url(#36847f8df8)"><path style=" stroke:none;fill-rule:nonzero;fill:#f1f1f1;fill-opacity:1;" d="M 198.566406 331.097656 L 229.867188 351.328125 L 197.070312 402.066406 L 165.769531 381.832031 Z M 198.566406 331.097656 "/></g></g></g><g clip-rule="nonzero" clip-path="url(#9f5931c20b)"><g clip-rule="nonzero" clip-path="url(#d983e26130)"><path style=" stroke:none;fill-rule:nonzero;fill:#fcb43a;fill-opacity:1;" d="M 128.824219 381.980469 L 231.949219 381.980469 L 231.949219 442.113281 L 128.824219 442.113281 Z M 128.824219 381.980469 "/></g></g><g clip-rule="nonzero" clip-path="url(#8d6b55b81e)"><path style=" stroke:none;fill-rule:nonzero;fill:#27201e;fill-opacity:1;" d="M 156.210938 381.980469 L 170.722656 381.980469 L 170.722656 442.132812 L 156.210938 442.132812 Z M 156.210938 381.980469 "/></g><g clip-rule="nonzero" clip-path="url(#bfaa4acef1)"><path style=" stroke:none;fill-rule:nonzero;fill:#27201e;fill-opacity:1;" d="M 188.851562 381.980469 L 203.175781 381.980469 L 203.175781 442.125 L 188.851562 442.125 Z M 188.851562 381.980469 "/></g></g></svg>